<svg xmlns="http://www.w3.org/2000/svg" width="38.181" height="30" viewBox="0 0 38.181 30"><defs><style>.a{fill:#303b52;}</style></defs><path class="a" d="M10.909,151.864v4.091A2.037,2.037,0,0,1,8.864,158H2.045A1.972,1.972,0,0,1,.6,157.4a1.973,1.973,0,0,1-.6-1.449v-4.091a1.973,1.973,0,0,1,.6-1.449,1.973,1.973,0,0,1,1.449-.6H8.864a2.037,2.037,0,0,1,2.045,2.045Zm0-10.909v4.091a2.037,2.037,0,0,1-2.045,2.045H2.045a1.972,1.972,0,0,1-1.449-.6,1.973,1.973,0,0,1-.6-1.449v-4.091a1.973,1.973,0,0,1,.6-1.449,1.973,1.973,0,0,1,1.449-.6H8.864a2.037,2.037,0,0,1,2.045,2.045Zm27.272,10.909v4.091A2.037,2.037,0,0,1,36.136,158H15.682a2.037,2.037,0,0,1-2.045-2.045v-4.091a2.037,2.037,0,0,1,2.045-2.045H36.136a2.037,2.037,0,0,1,2.045,2.045ZM10.909,130.045v4.091a2.037,2.037,0,0,1-2.045,2.045H2.045a1.972,1.972,0,0,1-1.449-.6,1.973,1.973,0,0,1-.6-1.449v-4.091A1.973,1.973,0,0,1,.6,128.6a1.973,1.973,0,0,1,1.449-.6H8.864a2.037,2.037,0,0,1,2.045,2.045Zm27.272,10.909v4.091a2.037,2.037,0,0,1-2.045,2.045H15.682a2.037,2.037,0,0,1-2.045-2.045v-4.091a2.037,2.037,0,0,1,2.045-2.045H36.136a2.037,2.037,0,0,1,2.045,2.045Zm0-10.909v4.091a2.037,2.037,0,0,1-2.045,2.045H15.682a2.037,2.037,0,0,1-2.045-2.045v-4.091A2.037,2.037,0,0,1,15.682,128H36.136a2.037,2.037,0,0,1,2.045,2.045Z" transform="translate(0 -128)"/></svg>