<svg xmlns="http://www.w3.org/2000/svg" width="16.034" height="18.196" viewBox="0 0 16.034 18.196"><defs><style>.a{fill:#db0000;fill-rule:evenodd;}</style></defs><path class="a" d="M13.759,2.629a1.149,1.149,0,0,0-1.66-.438,3.425,3.425,0,0,0-.942,1,7.941,7.941,0,0,0-.653,1.269A20.446,20.446,0,0,0,9.544,7.57a35.44,35.44,0,0,0-.7,4.071,3.009,3.009,0,0,1-1.083-1.213A6.975,6.975,0,0,1,7.3,7.41,1.137,1.137,0,0,0,6.6,6.36a1.151,1.151,0,0,0-1.248.247,7.921,7.921,0,0,0,0,11.258,8.057,8.057,0,0,0,11.338,0,7.921,7.921,0,0,0,0-11.258,16.533,16.533,0,0,1-1.543-1.669A14.008,14.008,0,0,1,13.759,2.629Zm-.313,14.293a3.453,3.453,0,0,1-4.859,0,3.389,3.389,0,0,1-1.006-2.412,6.239,6.239,0,0,0,2.863.569c0-1.137.573-4.549,1.432-5.118A6.558,6.558,0,0,0,13.446,12.1a3.395,3.395,0,0,1,0,4.825Z" transform="translate(-3 -2)"/></svg>