<svg xmlns="http://www.w3.org/2000/svg" width="21.875" height="25" viewBox="0 0 21.875 25"><defs><style>.a{fill:#db0000;fill-rule:evenodd;}</style></defs><path class="a" d="M17.679,2.864a1.562,1.562,0,0,0-2.264-.6A4.692,4.692,0,0,0,14.13,3.637a10.939,10.939,0,0,0-.89,1.743,28.238,28.238,0,0,0-1.311,4.272,49.008,49.008,0,0,0-.959,5.593A4.125,4.125,0,0,1,9.492,13.58a9.645,9.645,0,0,1-.621-4.146A1.563,1.563,0,0,0,6.2,8.329a10.938,10.938,0,1,0,15.468,0,22.656,22.656,0,0,1-2.106-2.293A19.273,19.273,0,0,1,17.679,2.864ZM17.252,22.5a4.687,4.687,0,0,1-8-3.315,8.463,8.463,0,0,0,3.906.781c0-1.562.781-6.25,1.953-7.031a9.006,9.006,0,0,0,2.143,2.935,4.687,4.687,0,0,1,0,6.629Z" transform="translate(-3 -2)"/></svg>