<svg xmlns="http://www.w3.org/2000/svg" width="7.846" height="9.319" viewBox="0 0 7.846 9.319"><defs><style>.a{fill:#db0000;}</style></defs><g transform="translate(0)"><path class="a" d="M22.1,34.332v.521c0,.912.331,1.162,1.537,1.162h2.107c1.205,0,1.536-.25,1.536-1.162v-.521ZM25.417,28.7a.613.613,0,0,0-.513.353.817.817,0,0,0,0,.738.805.805,0,0,0,.582.358l1.685.318a.184.184,0,0,1,.147.214.186.186,0,0,1-.218.145l-1.068-.177c-.625.355-.71,1.128-.71,1.909a.186.186,0,0,1-.371,0,2.659,2.659,0,0,1,.617-2.022l-.165-.031a1.163,1.163,0,0,1-.83-.548c-.01-.02-.018-.039-.026-.059a1.04,1.04,0,0,1-.4.353,1.206,1.206,0,0,1-.542.126,1.223,1.223,0,0,1-.543-.126A1.036,1.036,0,0,1,22.6,29.8a1.083,1.083,0,0,1-.287.211,1.236,1.236,0,0,1-1.086,0,1.05,1.05,0,0,1-.206-.136l0,1.266a2.327,2.327,0,0,0,.584,1.73,1.82,1.82,0,0,1,.488,1.094h5.2a1.846,1.846,0,0,1,.53-1.139A3.928,3.928,0,0,0,28.73,30.9c.275-1.243.135-1.666-.629-1.871Z" transform="translate(-21.014 -26.696)"/><path class="a" d="M21.77,16.776a.84.84,0,0,0-.375.087.608.608,0,0,0-.35.487l0,1.443a.172.172,0,0,1,.016.072.608.608,0,0,0,.357.528.851.851,0,0,0,.75,0,.614.614,0,0,0,.347-.46L22.4,17.083a.669.669,0,0,0-.254-.221A.836.836,0,0,0,21.77,16.776Zm5.318-.052a.838.838,0,0,0-.375.087.688.688,0,0,0-.279.257v1.058a.154.154,0,0,1-.007.036l1.392.168v-.991a.608.608,0,0,0-.358-.528A.837.837,0,0,0,27.088,16.724ZM23.5,16.4a.834.834,0,0,0-.374.087.607.607,0,0,0-.358.526l.127,2.081a.61.61,0,0,0,.357.539.854.854,0,0,0,.749,0,.605.605,0,0,0,.357-.528l-.126-2.088a.607.607,0,0,0-.358-.529A.836.836,0,0,0,23.5,16.4Zm1.834,0a.837.837,0,0,0-.375.087.605.605,0,0,0-.356.526l.087,1.436a.965.965,0,0,1,.774-.406l.6.072v-1.1a.609.609,0,0,0-.358-.528A.835.835,0,0,0,25.332,16.4Z" transform="translate(-21.037 -16.402)"/></g></svg>