<svg xmlns="http://www.w3.org/2000/svg" width="30" height="30" viewBox="0 0 30 30"><defs><style>.a{fill:#1168d0;}</style></defs><path class="a" d="M18.75,12.75H15a2.5,2.5,0,0,1-2.5-2.5V6.5A2.5,2.5,0,0,1,15,4h3.75a2.5,2.5,0,0,1,2.5,2.5v3.75A2.5,2.5,0,0,1,18.75,12.75Z" transform="translate(-1.875 -4)"/><path class="a" d="M10.25,12.75H6.5A2.5,2.5,0,0,1,4,10.25V6.5A2.5,2.5,0,0,1,6.5,4h3.75a2.5,2.5,0,0,1,2.5,2.5v3.75A2.5,2.5,0,0,1,10.25,12.75Z" transform="translate(-4 -4)"/><path class="a" d="M27.25,12.75H23.5a2.5,2.5,0,0,1-2.5-2.5V6.5A2.5,2.5,0,0,1,23.5,4h3.75a2.5,2.5,0,0,1,2.5,2.5v3.75A2.5,2.5,0,0,1,27.25,12.75Z" transform="translate(0.25 -4)"/><path class="a" d="M18.75,29.75H15a2.5,2.5,0,0,1-2.5-2.5V23.5A2.5,2.5,0,0,1,15,21h3.75a2.5,2.5,0,0,1,2.5,2.5v3.75A2.5,2.5,0,0,1,18.75,29.75Z" transform="translate(-1.875 0.25)"/><path class="a" d="M10.25,29.75H6.5A2.5,2.5,0,0,1,4,27.25V23.5A2.5,2.5,0,0,1,6.5,21h3.75a2.5,2.5,0,0,1,2.5,2.5v3.75A2.5,2.5,0,0,1,10.25,29.75Z" transform="translate(-4 0.25)"/><path class="a" d="M27.25,29.75H23.5a2.5,2.5,0,0,1-2.5-2.5V23.5A2.5,2.5,0,0,1,23.5,21h3.75a2.5,2.5,0,0,1,2.5,2.5v3.75A2.5,2.5,0,0,1,27.25,29.75Z" transform="translate(0.25 0.25)"/><path class="a" d="M18.75,21.25H15a2.5,2.5,0,0,1-2.5-2.5V15A2.5,2.5,0,0,1,15,12.5h3.75a2.5,2.5,0,0,1,2.5,2.5v3.75A2.5,2.5,0,0,1,18.75,21.25Z" transform="translate(-1.875 -1.875)"/><path class="a" d="M10.25,21.25H6.5A2.5,2.5,0,0,1,4,18.75V15a2.5,2.5,0,0,1,2.5-2.5h3.75a2.5,2.5,0,0,1,2.5,2.5v3.75A2.5,2.5,0,0,1,10.25,21.25Z" transform="translate(-4 -1.875)"/><path class="a" d="M27.25,21.25H23.5a2.5,2.5,0,0,1-2.5-2.5V15a2.5,2.5,0,0,1,2.5-2.5h3.75a2.5,2.5,0,0,1,2.5,2.5v3.75A2.5,2.5,0,0,1,27.25,21.25Z" transform="translate(0.25 -1.875)"/></svg>